<svg width="200" height="300" viewBox="0 0 100 150" xmlns="http://www.w3.org/2000/svg">
  <ellipse cx="50" cy="141" rx="22" ry="6" fill="#0a1420" opacity="0.35"/>
  <rect x="43" y="112" width="14" height="28" rx="2" fill="#5D4037"/>
  <rect x="50" y="112" width="7" height="28" rx="2" fill="#4E342E"/>
  <path d="M44,114 Q50,111 56,114" stroke="#8D6E63" stroke-width="1" fill="none" opacity="0.5"/>
  <!-- capa baja verde oscuro + nieve encima -->
  <polygon points="50,63 8,116 92,116" fill="#2E7D32"/>
  <polygon points="50,63 92,116 50,116" fill="#245E28"/>
  <polygon points="50,63 8,116 22,116" fill="#388E3C" opacity="0.35"/>
  <!-- nieve capa baja -->
  <polygon points="50,65 8,116 30,116 50,100 70,116 92,116" fill="#E8F4FF" opacity="0.82"/>
  <polygon points="50,65 25,105 50,95 75,105" fill="#F4F8FF" opacity="0.65"/>
  <!-- capa media -->
  <polygon points="50,42 18,87 82,87" fill="#388E3C"/>
  <polygon points="50,42 82,87 50,87" fill="#2C7530"/>
  <!-- nieve capa media -->
  <polygon points="50,44 18,87 36,87 50,74 64,87 82,87" fill="#E0EFFF" opacity="0.82"/>
  <polygon points="50,44 28,76 50,67 72,76" fill="#EEF5FF" opacity="0.65"/>
  <!-- capa alta -->
  <polygon points="50,22 28,58 72,58" fill="#43A047"/>
  <polygon points="50,22 72,58 50,58" fill="#357A38"/>
  <!-- nieve capa alta -->
  <polygon points="50,24 28,58 40,58 50,46 60,58 72,58" fill="#D8EAFF" opacity="0.85"/>
  <polygon points="50,24 35,48 50,42 65,48" fill="#EAF2FF" opacity="0.7"/>
  <!-- punta nieve -->
  <polygon points="50,22 44,30 50,28 56,30" fill="#F5F9FF" opacity="0.9"/>
</svg>